<mxfile host="app.diagrams.net" modified="2023-10-02T09:32:37.757Z" agent="Mozilla/5.0 (X11; Linux x86_64; rv:109.0) Gecko/20100101 Firefox/118.0" etag="Lhv27vJ3c0HgskQFcvwz" version="22.0.0" type="github">
  <diagram name="Page-1" id="atpHYdcX41WkCeb_qx9v">
    <mxGraphModel dx="1434" dy="720" grid="1" gridSize="10" guides="1" tooltips="1" connect="1" arrows="1" fold="1" page="1" pageScale="1" pageWidth="827" pageHeight="1169" math="0" shadow="0">
      <root>
        <mxCell id="0" />
        <mxCell id="1" parent="0" />
        <mxCell id="tOEbGuFUbsUMXaIYAXdz-1" value="Kunde" style="shape=umlActor;verticalLabelPosition=bottom;verticalAlign=top;html=1;outlineConnect=0;" parent="1" vertex="1">
          <mxGeometry x="30" y="80" width="30" height="60" as="geometry" />
        </mxCell>
        <mxCell id="tOEbGuFUbsUMXaIYAXdz-2" value="Skiverleih" style="swimlane;whiteSpace=wrap;html=1;" parent="1" vertex="1">
          <mxGeometry x="80" y="40" width="220" height="140" as="geometry">
            <mxRectangle x="200" y="100" width="100" height="30" as="alternateBounds" />
          </mxGeometry>
        </mxCell>
        <mxCell id="tOEbGuFUbsUMXaIYAXdz-6" value="Ausrüstung ausleihen" style="ellipse;whiteSpace=wrap;html=1;" parent="tOEbGuFUbsUMXaIYAXdz-2" vertex="1">
          <mxGeometry x="50" y="40" width="120" height="80" as="geometry" />
        </mxCell>
        <mxCell id="4s96S2IBb8-BXKbb9MvU-3" value="" style="endArrow=classic;html=1;rounded=0;dashed=1;entryX=0.45;entryY=1.05;entryDx=0;entryDy=0;entryPerimeter=0;exitX=0.5;exitY=0;exitDx=0;exitDy=0;" parent="tOEbGuFUbsUMXaIYAXdz-2" source="tOEbGuFUbsUMXaIYAXdz-15" edge="1">
          <mxGeometry relative="1" as="geometry">
            <mxPoint x="457" y="282" as="sourcePoint" />
            <mxPoint x="498.80999999999995" y="124" as="targetPoint" />
          </mxGeometry>
        </mxCell>
        <mxCell id="tOEbGuFUbsUMXaIYAXdz-3" value="Verkäufer" style="shape=umlActor;verticalLabelPosition=bottom;verticalAlign=top;html=1;outlineConnect=0;" parent="1" vertex="1">
          <mxGeometry x="320" y="80" width="30" height="60" as="geometry" />
        </mxCell>
        <mxCell id="tOEbGuFUbsUMXaIYAXdz-5" value="" style="endArrow=none;html=1;rounded=0;entryX=0;entryY=0.5;entryDx=0;entryDy=0;exitX=1;exitY=0.3333333333333333;exitDx=0;exitDy=0;exitPerimeter=0;" parent="1" source="tOEbGuFUbsUMXaIYAXdz-1" target="tOEbGuFUbsUMXaIYAXdz-6" edge="1">
          <mxGeometry width="50" height="50" relative="1" as="geometry">
            <mxPoint x="130" y="210" as="sourcePoint" />
            <mxPoint x="230" y="160" as="targetPoint" />
          </mxGeometry>
        </mxCell>
        <mxCell id="tOEbGuFUbsUMXaIYAXdz-11" value="" style="endArrow=none;html=1;rounded=0;entryX=0;entryY=0.3333333333333333;entryDx=0;entryDy=0;entryPerimeter=0;exitX=1;exitY=0.5;exitDx=0;exitDy=0;" parent="1" source="tOEbGuFUbsUMXaIYAXdz-6" target="tOEbGuFUbsUMXaIYAXdz-3" edge="1">
          <mxGeometry width="50" height="50" relative="1" as="geometry">
            <mxPoint x="470" y="200" as="sourcePoint" />
            <mxPoint x="520" y="150" as="targetPoint" />
          </mxGeometry>
        </mxCell>
      </root>
    </mxGraphModel>
  </diagram>
</mxfile>
